<?xml version="1.0" encoding="UTF-8"?>
<!DOCTYPE svg PUBLIC "-//W3C//DTD SVG 1.1//EN" "http://www.w3.org/Graphics/SVG/1.1/DTD/svg11.dtd">
<!-- Creator: CorelDRAW X8 -->
<svg xmlns="http://www.w3.org/2000/svg" xml:space="preserve" width="46.1351mm" height="6.1299mm" version="1.1" style="shape-rendering:geometricPrecision; text-rendering:geometricPrecision; image-rendering:optimizeQuality; fill-rule:evenodd; clip-rule:evenodd"
viewBox="0 0 282 38"
 xmlns:xlink="http://www.w3.org/1999/xlink">
 <defs>
  <style type="text/css">
   <![CDATA[
    .fil2 {fill:#8178B3}
    .fil1 {fill:#64B9DB;fill-rule:nonzero}
    .fil0 {fill:white;fill-rule:nonzero}
   ]]>
  </style>
 </defs>
 <g id="Camada_x0020_1">
  <metadata id="CorelCorpID_0Corel-Layer"/>
  <g id="_1686420382128">
   <path class="fil0" d="M262 10c0,-1 1,-2 2,-3 1,-1 2,-1 4,-1 2,0 3,0 5,1 2,0 3,1 5,2l3 -4c-2,-2 -4,-3 -6,-4 -2,-1 -4,-1 -7,-1 -2,0 -3,0 -5,1 -1,0 -3,1 -4,2 -1,1 -2,2 -2,3 -1,2 -1,3 -1,5 0,1 0,3 1,4 0,1 1,2 2,3 1,1 2,2 4,2 1,1 3,1 5,2 2,0 3,0 4,1 1,0 2,1 2,1 1,0 1,1 2,1 0,1 0,1 0,2 0,2 -1,3 -2,4 -1,0 -2,1 -4,1 -3,0 -5,-1 -6,-1 -2,-1 -4,-2 -6,-4l-4 5c3,2 5,3 7,4 3,1 6,1 8,1 2,0 4,0 6,0 1,-1 3,-2 4,-2 1,-1 2,-3 2,-4 1,-1 1,-3 1,-4 0,-2 0,-3 0,-4 -1,-2 -2,-3 -3,-3 -1,-1 -2,-2 -3,-3 -2,0 -3,-1 -5,-1 -2,-1 -3,-1 -5,-1 -1,-1 -2,-1 -2,-2 -1,0 -1,-1 -2,-1 0,-1 0,-1 0,-2z"/>
   <path class="fil0" d="M249 19c0,-3 0,-5 -1,-8 -1,-2 -2,-4 -4,-6 -2,-1 -4,-3 -6,-4 -2,-1 -5,-1 -8,-1 -2,0 -5,1 -7,2 -3,1 -5,2 -6,4 -2,1 -3,3 -4,6 -1,2 -2,4 -2,7 0,2 1,5 2,7 1,2 2,4 4,6 1,2 3,3 6,4 2,1 4,2 7,2 3,0 6,-1 8,-2 2,-1 4,-2 6,-4 2,-2 3,-4 4,-6 1,-2 1,-5 1,-7zm-6 0c0,2 -1,3 -1,5 -1,1 -2,3 -3,4 -1,1 -2,2 -4,3 -1,0 -3,1 -5,1 -1,0 -3,-1 -5,-1 -1,-1 -2,-2 -4,-3 -1,-1 -1,-3 -2,-4 -1,-2 -1,-4 -1,-5 0,-2 0,-4 1,-5 1,-2 1,-3 2,-4 2,-2 3,-2 4,-3 2,-1 3,-1 5,-1 2,0 4,0 5,1 2,1 3,2 4,3 1,1 2,2 3,4 0,1 1,3 1,5z"/>
   <path class="fil0" d="M205 19c0,-3 0,-5 -1,-7 -1,-3 -2,-5 -4,-6 -2,-2 -4,-3 -6,-4 -3,-1 -5,-1 -8,-1l-14 0 0 36 14 0c3,0 5,-1 8,-2 2,0 4,-2 6,-3 2,-2 3,-4 4,-6 1,-2 1,-5 1,-7zm-6 0c0,2 -1,3 -1,5 -1,1 -2,3 -3,4 -1,1 -2,2 -4,2 -1,1 -3,1 -5,1l-7 0 0 -25 7 0c2,0 4,1 5,1 2,1 3,2 4,3 1,1 2,2 3,4 0,1 1,3 1,5z"/>
   <polygon class="fil1" points="152,22 143,22 140,28 154,28 "/>
   <path class="fil0" d="M150 0l-6 0 -16 37 7 0c4,-10 8,-19 12,-29l12 29 0 0 7 0 -16 -37z"/>
   <path class="fil0" d="M126 19c0,-3 0,-5 -1,-7 -1,-3 -2,-5 -4,-6 -2,-2 -4,-3 -6,-4 -3,-1 -5,-1 -8,-1l-14 0 0 36 14 0c3,0 5,-1 8,-2 2,0 4,-2 6,-3 2,-2 3,-4 4,-6 1,-2 1,-5 1,-7zm-6 0c0,2 -1,3 -1,5 -1,1 -2,3 -3,4 -1,1 -2,2 -4,2 -1,1 -3,1 -5,1l-7 0 0 -25 7 0c2,0 4,1 5,1 2,1 3,2 4,3 1,1 2,2 3,4 0,1 1,3 1,5z"/>
   <polygon class="fil0" points="77,1 77,37 84,37 84,1 "/>
   <polygon class="fil0" points="54,14 45,1 37,1 50,18 36,37 44,37 53,23 63,37 70,37 "/>
   <path class="fil0" d="M32 19c0,-3 -1,-5 -2,-8 0,-2 -1,-4 -3,-6 -1,-1 -3,-3 -5,-4 -2,-1 -4,-1 -6,-1 -3,0 -5,0 -7,1 -2,1 -3,3 -5,4 -1,2 -2,4 -3,6 -1,3 -1,5 -1,8 0,2 0,5 1,7 1,2 2,4 3,6 2,2 3,3 5,4 2,1 4,2 7,2 2,0 4,-1 6,-2 2,-1 4,-2 5,-4 2,-2 3,-4 3,-6 1,-2 2,-5 2,-7zm-7 0c0,2 0,3 -1,5 0,1 -1,3 -1,4 -1,1 -2,2 -3,3 -1,0 -3,1 -4,1 -2,0 -3,-1 -4,-1 -1,-1 -2,-2 -3,-3 -1,-1 -1,-3 -2,-4 0,-2 0,-3 0,-5 0,-2 0,-4 0,-5 1,-2 1,-3 2,-4 1,-2 2,-3 3,-3 1,-1 2,-1 4,-1 1,0 2,0 4,1 1,0 2,1 3,3 0,1 1,2 1,4 1,1 1,3 1,5z"/>
   <polygon class="fil2" points="72,1 76,1 76,7 67,7 "/>
   <polygon class="fil1" points="58,17 70,1 63,1 54,12 54,12 "/>
  </g>
 </g>
</svg>
